<?xml version="1.0" encoding="UTF-8"?>
<!DOCTYPE svg PUBLIC "-//W3C//DTD SVG 1.1//EN" "http://www.w3.org/Graphics/SVG/1.1/DTD/svg11.dtd">
<svg xmlns="http://www.w3.org/2000/svg" version="1.1" width="512px" height="512px" style="shape-rendering:geometricPrecision; text-rendering:geometricPrecision; image-rendering:optimizeQuality; fill-rule:evenodd; clip-rule:evenodd" xmlns:xlink="http://www.w3.org/1999/xlink">
<g><path style="opacity:0.974" fill="#000002" d="M 511.5,400.5 C 511.5,403.5 511.5,406.5 511.5,409.5C 507.835,421.324 499.835,428.491 487.5,431C 332.833,431.667 178.167,431.667 23.5,431C 11.1651,428.491 3.16507,421.324 -0.5,409.5C -0.5,406.5 -0.5,403.5 -0.5,400.5C 15.5109,382.651 31.0109,364.318 46,345.5C 46.3333,261.833 46.6667,178.167 47,94.5C 49.1667,87 54,82.1667 61.5,80C 190.833,79.3333 320.167,79.3333 449.5,80C 457,82.1667 461.833,87 464,94.5C 464.333,178.167 464.667,261.833 465,345.5C 479.989,364.318 495.489,382.651 511.5,400.5 Z M 87.5,97.5 C 200.877,97.008 314.21,97.508 427.5,99C 431.388,101.222 434.221,104.388 436,108.5C 436.99,178.891 436.657,249.224 435,319.5C 432.051,324.728 427.551,327.561 421.5,328C 310.833,328.667 200.167,328.667 89.5,328C 82.2534,327.136 77.4201,323.302 75,316.5C 74.3333,247.167 74.3333,177.833 75,108.5C 77.5373,102.785 81.7039,99.1184 87.5,97.5 Z M 191.5,385.5 C 234.172,385.167 276.839,385.5 319.5,386.5C 323.645,391.813 327.979,396.98 332.5,402C 281.167,402.667 229.833,402.667 178.5,402C 183.453,396.893 187.786,391.393 191.5,385.5 Z M 215.5,412.5 C 242.169,412.333 268.835,412.5 295.5,413C 298.167,415.333 298.167,417.667 295.5,420C 268.833,420.667 242.167,420.667 215.5,420C 212.914,417.506 212.914,415.006 215.5,412.5 Z"/></g>
</svg>
