<?xml version="1.0" standalone="no"?>
<!DOCTYPE svg PUBLIC "-//W3C//DTD SVG 20010904//EN"
 "http://www.w3.org/TR/2001/REC-SVG-20010904/DTD/svg10.dtd">
<svg version="1.0" xmlns="http://www.w3.org/2000/svg"
 width="512.000000pt" height="512.000000pt" viewBox="0 0 512.000000 512.000000"
 preserveAspectRatio="xMidYMid meet">

<g transform="translate(0.000000,512.000000) scale(0.100000,-0.100000)"
fill="#000000" stroke="none">
<path d="M117 4826 c-97 -36 -144 -143 -101 -229 9 -18 145 -161 302 -319
l287 -288 -287 -287 c-289 -290 -318 -326 -318 -392 0 -88 82 -171 170 -171
67 0 102 28 393 318 l287 287 288 -287 c191 -191 299 -292 324 -303 50 -20 91
-19 137 5 75 38 111 115 91 193 -10 36 -51 81 -306 337 l-294 295 285 285
c157 157 293 301 302 320 64 133 -52 273 -197 238 -41 -10 -74 -39 -340 -304
l-295 -294 -285 286 c-157 157 -296 291 -310 299 -42 22 -92 26 -133 11z"/>
<path d="M4380 2560 l0 -2280 370 0 370 0 0 2280 0 2280 -370 0 -370 0 0
-2280z"/>
<path d="M2920 1975 l0 -1695 370 0 370 0 0 1695 0 1695 -370 0 -370 0 0
-1695z"/>
<path d="M1460 1395 l0 -1115 370 0 370 0 0 1115 0 1115 -370 0 -370 0 0
-1115z"/>
<path d="M0 815 l0 -535 370 0 370 0 0 535 0 535 -370 0 -370 0 0 -535z"/>
</g>
</svg>
